<?xml version="1.0" encoding="utf-8"?>
<!-- Generator: Adobe Illustrator 23.0.5, SVG Export Plug-In . SVG Version: 6.00 Build 0)  -->
<svg version="1.1" id="Capa_1" xmlns="http://www.w3.org/2000/svg" xmlns:xlink="http://www.w3.org/1999/xlink" x="0px" y="0px"
	 viewBox="0 0 58 51" style="enable-background:new 0 0 58 51;" xml:space="preserve">
<style type="text/css">
	.st0{fill:#A3B6D8;}
	.st1{fill:#ECF0F1;}
	.st2{fill:#303C6C;}
	.st3{fill:#F4976C;}
	.st4{fill:#FFFFFF;}
</style>
<path class="st0" d="M50.7,45.7H2.3c-1,0-1.8-0.6-1.8-1.4V2.1c0-0.8,0.8-1.4,1.8-1.4h48.3c1,0,1.8,0.6,1.8,1.4v42.2
	C52.5,45.1,51.7,45.7,50.7,45.7z"/>
<path class="st1" d="M32,14.1H21c-1.9,0-3.5-1.6-3.5-3.5V9.1c0-0.6,0.4-1,1-1s1,0.4,1,1v1.5c0,0.8,0.7,1.5,1.5,1.5h11
	c0.8,0,1.5-0.7,1.5-1.5V9.1c0-0.6,0.4-1,1-1s1,0.4,1,1v1.5C35.5,12.5,33.9,14.1,32,14.1z"/>
<path class="st1" d="M32,37H21c-1.9,0-3.5-1.6-3.5-3.5V32c0-0.6,0.4-1,1-1s1,0.4,1,1v1.5c0,0.8,0.7,1.5,1.5,1.5h11
	c0.8,0,1.5-0.7,1.5-1.5V32c0-0.6,0.4-1,1-1s1,0.4,1,1v1.5C35.5,35.5,33.9,37,32,37z"/>
<rect x="0.5" y="21" class="st2" width="52" height="2"/>
<circle class="st3" cx="45.5" cy="39" r="12"/>
<path class="st4" d="M52.1,33.2c-0.5-0.3-1.1-0.2-1.4,0.3l-5.6,8l-3.9-3.2c-0.4-0.4-1.1-0.3-1.4,0.1c-0.4,0.4-0.3,1.1,0.1,1.4
	l4.8,3.9c0.2,0.1,0.4,0.2,0.6,0.2c0,0,0.1,0,0.1,0c0.3,0,0.5-0.2,0.7-0.4l6.2-8.9C52.6,34.1,52.5,33.5,52.1,33.2z"/>
</svg>
