<?xml version="1.0" encoding="utf-8"?>
<!-- Generator: Adobe Illustrator 23.0.5, SVG Export Plug-In . SVG Version: 6.00 Build 0)  -->
<svg version="1.1" xmlns="http://www.w3.org/2000/svg" xmlns:xlink="http://www.w3.org/1999/xlink" x="0px" y="0px"
	 viewBox="0 0 500 500" style="enable-background:new 0 0 500 500;" xml:space="preserve">
<style type="text/css">
	.st0{fill-rule:evenodd;clip-rule:evenodd;fill:#FFFFFF;}
	.st1{fill-rule:evenodd;clip-rule:evenodd;fill:none;}
	.st2{fill-rule:evenodd;clip-rule:evenodd;fill:#D2DDFF;}
	.st3{fill:#D2DDFF;}
	.st4{fill:#5D6FBA;}
	.st5{font-family:'DejaVuSans';}
	.st6{font-size:110.3423px;}
	.st7{opacity:0.4;fill:#5D6FBA;}
	.st8{opacity:0.7;fill:#AFCDEA;}
	.st9{fill:#5F91D9;}
	.st10{fill:#47549B;}
	.st11{opacity:0.6;}
	.st12{fill:#DCEAF9;}
	.st13{fill:#FFFFFF;}
</style>
<g id="BACKGROUND">
	<rect y="0.01" class="st0" width="500" height="499.99"/>
	<g>
		<g>
			<path class="st1" d="M453.82,126.52c-13.84,5.19-26.89,12.66-39.5,19.89c-10.53,6.04-21.43,12.28-32.73,17.16
				c-18.48,7.97-38.51,12.5-57.89,16.87c-16.59,3.75-33.74,7.62-49.91,13.65c-7.54,2.81-15.11,6.16-22.43,9.41
				c-19.31,8.56-39.28,17.43-60.41,17.01c-19.93-0.37-38.66-8.98-56.77-17.29c-17.03-7.82-34.64-15.91-53.39-17.3
				c-7.28-0.54-14.67-0.05-21.83,0.42c-6.23,0.41-12.67,0.83-19,0.57c-16.08-0.66-28.95-6.58-35.29-16.24
				c-0.86-1.3-1.62-2.71-2.37-4.08c-0.72-1.33-1.47-2.68-2.31-3.97v1.9c0.49,0.84,0.97,1.7,1.43,2.54c0.75,1.38,1.53,2.81,2.41,4.15
				c6.52,9.94,19.68,16.02,36.09,16.69c6.37,0.26,12.85-0.16,19.1-0.58c7.12-0.47,14.48-0.95,21.69-0.42
				c18.58,1.38,36.1,9.43,53.05,17.22c18.2,8.36,37.02,17.01,57.17,17.39c21.35,0.4,41.42-8.49,60.83-17.09
				c7.31-3.24,14.87-6.59,22.38-9.39c16.11-6,33.23-9.87,49.78-13.61c19.42-4.39,39.5-8.92,58.06-16.93
				c11.35-4.9,22.27-11.16,32.83-17.21c12.58-7.21,25.59-14.67,39.35-19.82c17.55-6.58,33.07-7.54,45.83-5.34v-1.13
				c-1.8-0.28-3.64-0.51-5.51-0.66C481.66,119.3,467.22,121.5,453.82,126.52z"/>
			<path class="st2" d="M33.66,306.65c5.13-3.02,11.44-3.33,17.01-3.6l128.54-6.24c27.18-1.32,55.28-2.68,82.87-0.42
				c7.91,0.65,15.93,1.61,23.7,2.54c15.12,1.81,30.75,3.69,46.23,3.34c27.99-0.63,55.53-8.48,82.16-16.08
				c27.24-7.77,55.41-15.8,83.99-16.06c0.61-0.01,1.23,0,1.84,0v-1c-0.62,0-1.24-0.01-1.85,0c-28.72,0.25-56.95,8.31-84.26,16.09
				c-26.57,7.58-54.04,15.41-81.9,16.04c-15.41,0.35-31.01-1.53-46.09-3.33c-7.77-0.93-15.81-1.9-23.73-2.55
				c-27.66-2.27-55.79-0.91-83,0.41l-128.54,6.24c-5.69,0.27-12.13,0.59-17.47,3.73c-5.1,3.01-9.03,9.84-6.48,15.65l0.13,0.3
				l301.45,2.74c24.95,0.23,50.75,0.46,74.89-7.91c4.7-1.63,9.38-3.61,13.91-5.53c9.01-3.81,18.32-7.76,28.1-9.03
				c19.01-2.48,36.48,4.81,54.85,12.83v-1.09c-17.64-7.7-35.86-15.23-54.98-12.73c-9.92,1.29-19.3,5.26-28.36,9.1
				c-4.51,1.91-9.18,3.89-13.85,5.5c-23.98,8.31-49.69,8.08-74.56,7.85l-300.8-2.73C25.39,315.5,29.01,309.39,33.66,306.65z"/>
			<path class="st2" d="M458.17,83.63c-14.72,1.44-29.24,5.4-43.27,9.22c-11.42,3.11-23.23,6.33-35.09,8.18
				c-18.93,2.94-38.45,2.47-57.34,2.01c-13.06-0.32-26.57-0.65-39.8,0.15c-20.16,1.22-40.36,5.09-59.89,8.83
				c-21.88,4.19-44.5,8.53-67.08,9.13c-11.15,0.3-22.51-0.32-33.5-0.91c-14.89-0.8-30.29-1.63-45.39-0.21
				c-15.98,1.5-32.16,5.53-47.81,9.42c-9.58,2.38-19.28,4.79-28.99,6.63v1.02c9.8-1.84,19.57-4.27,29.23-6.68
				c15.61-3.88,31.76-7.9,47.66-9.4c15.03-1.41,30.39-0.58,45.24,0.22c11.01,0.59,22.39,1.21,33.58,0.91
				c22.66-0.6,45.32-4.94,67.24-9.15c19.5-3.74,39.67-7.6,59.76-8.82c13.2-0.8,26.68-0.47,39.72-0.15
				c18.93,0.46,38.5,0.94,57.52-2.02c11.91-1.85,23.75-5.08,35.2-8.2c14-3.82,28.47-7.76,43.11-9.19
				c12.96-1.27,26.21-0.58,39.02,0.08c0.9,0.05,1.81,0.09,2.71,0.14v-1c-0.89-0.05-1.78-0.09-2.66-0.14
				C484.48,83.05,471.19,82.36,458.17,83.63z"/>
			<path class="st2" d="M79.62,464.9c12.22-0.4,24.62,0.84,36.61,2.03c9.32,0.93,18.96,1.88,28.48,2.08
				c36.5,0.75,72.46-9.58,107.24-19.56l4.12-1.18c23.23-6.65,44.13-11.78,64.7-7.09c6.8,1.55,13.42,4.2,19.81,6.77
				c3.57,1.43,7.26,2.91,10.95,4.19c32.48,11.24,68.25,8.21,102.85,5.27c15.15-1.29,30.49-2.58,45.62-2.66v-1
				c-15.16,0.08-30.53,1.38-45.71,2.66c-34.5,2.92-70.16,5.95-102.44-5.22c-3.67-1.27-7.35-2.75-10.9-4.17
				c-6.43-2.58-13.08-5.25-19.96-6.82c-20.81-4.74-41.84,0.41-65.2,7.1l-4.12,1.18c-34.71,9.96-70.58,20.27-106.94,19.52
				c-9.48-0.19-19.1-1.15-28.4-2.07c-12.02-1.19-24.46-2.43-36.74-2.03c-18.86,0.61-38.08,5-56.67,9.26
				c-7.74,1.77-15.37,3.51-22.92,5v1c7.74-1.5,15.47-3.27,23.14-5.02C41.68,469.89,60.86,465.51,79.62,464.9z"/>
			<path class="st2" d="M0,28.81c10.74-0.15,21.47,0.39,32.12,2.13c9.57,1.56,19.11,4.12,28.34,6.59
				c9.61,2.57,19.54,5.23,29.53,6.78c23.86,3.71,48.36,1.22,72.06-1.19c20.12-2.05,40.93-4.17,61.29-2.48
				c17.63,1.46,35.4,5.78,52.59,9.96c28.18,6.86,57.32,13.95,86.02,8.27c6.72-1.33,13.39-3.37,19.83-5.35
				c8.48-2.6,17.24-5.28,26.15-6.34c14.04-1.68,28.34,0.66,42.17,2.91c12.47,2.03,25.37,4.14,38.13,3.34
				c3.9-0.24,7.86-0.76,11.77-1.32v-1.01c-3.93,0.57-7.93,1.09-11.83,1.34c-12.65,0.79-25.49-1.3-37.9-3.33
				c-13.9-2.27-28.27-4.61-42.45-2.92c-9,1.07-17.81,3.77-26.33,6.38c-6.42,1.97-13.06,4-19.74,5.32
				c-28.48,5.64-57.51-1.43-85.59-8.26c-17.23-4.19-35.04-8.53-52.74-9.99c-20.45-1.69-41.3,0.43-61.47,2.49
				c-23.63,2.4-48.07,4.89-71.8,1.2c-9.94-1.55-19.85-4.2-29.43-6.76c-9.25-2.48-18.82-5.04-28.44-6.61
				C21.57,28.2,10.78,27.66,0,27.81V28.81z"/>
			<path class="st2" d="M57.8,283.64c10.72-0.65,21.54-2.25,32-3.8c14.33-2.12,29.14-4.32,43.83-4.07
				c14.71,0.25,29.47,2.94,43.75,5.55c11.11,2.03,22.6,4.13,34.03,5.07c38.96,3.21,77.64-6.79,115.05-16.46
				c21.51-5.56,43.75-11.31,65.89-14.53c16.22-2.36,32.9-3.42,49.02-4.45c19.34-1.23,39.23-2.51,58.64-6.03v-1.02
				c-19.41,3.53-39.33,4.81-58.7,6.05c-16.15,1.03-32.85,2.09-49.1,4.45c-22.19,3.22-44.46,8.98-66,14.55
				c-37.33,9.65-75.92,19.63-114.71,16.43c-11.38-0.94-22.85-3.03-33.93-5.06c-14.31-2.61-29.12-5.32-43.91-5.57
				c-14.77-0.25-29.62,1.95-43.99,4.08c-10.44,1.55-21.23,3.14-31.91,3.79c-19.31,1.17-38.67-0.7-57.74-3.46v1.01
				C19.07,282.94,38.44,284.81,57.8,283.64z"/>
			<path class="st2" d="M13.37,459.12c17.97-0.3,35.58-5.33,52.61-10.19c10.89-3.11,22.14-6.33,33.41-8.28
				c15.42-2.68,31.58-3.15,47.21-3.61c26.56-0.78,54.03-1.58,78.11-13.36c3.66-1.79,7.26-3.85,10.75-5.84
				c6.07-3.47,12.35-7.06,19.06-9.28c12.76-4.22,26.26-3.5,41.31-2.21c10.02,0.86,20.26,1.82,30.15,2.76
				c57.6,5.44,117.09,11.04,174.03-0.94v-1.02c-56.86,12-116.33,6.4-173.93,0.96c-9.9-0.93-20.13-1.9-30.16-2.76
				c-15.16-1.3-28.77-2.02-41.71,2.26c-6.81,2.25-13.13,5.87-19.24,9.36c-3.47,1.98-7.06,4.04-10.69,5.81
				c-23.89,11.68-51.24,12.48-77.7,13.26c-15.67,0.46-31.87,0.93-47.35,3.63c-11.32,1.97-22.6,5.19-33.51,8.31
				c-16.97,4.85-34.51,9.86-52.35,10.16c-4.43,0.08-8.89-0.15-13.35-0.55v1C4.46,458.97,8.92,459.2,13.37,459.12z"/>
			<path class="st2" d="M72.73,492.66c14.35-1.31,28.82-3.56,42.81-5.74c13.19-2.05,26.82-4.18,40.31-5.5
				c32.43-3.19,65.51-1.95,97.5-0.76L500,489.86v-1l-246.6-9.21c-32.02-1.2-65.14-2.43-97.64,0.76
				c-13.52,1.33-27.17,3.46-40.37,5.51c-13.98,2.18-28.43,4.43-42.75,5.74c-17.91,1.64-36.3,1.86-54.07,2.08
				c-6.15,0.07-12.35,0.15-18.57,0.29v1c6.22-0.14,12.42-0.21,18.58-0.29C36.37,494.52,54.78,494.3,72.73,492.66z"/>
			<path class="st2" d="M46.08,360.91c5.51-3.85,11.21-7.83,16.91-11.09c21.29-12.17,46.39-15.3,65.88-16.67
				c33.81-2.38,66.6-0.38,97.46,5.93c6.87,1.41,13.84,3.07,20.57,4.67c17.77,4.23,36.14,8.61,54.68,8.79
				c21.78,0.23,43.25-5.34,64.04-10.71c6.45-1.67,13.12-3.39,19.69-4.91c22.45-5.2,55.51-10.6,83.3,2.55
				c2.37,1.12,4.73,2.39,7.02,3.62c5.4,2.9,10.98,5.9,17.09,7.19c2.36,0.5,4.81,0.75,7.3,0.85v-1c-2.42-0.1-4.8-0.35-7.09-0.83
				c-5.96-1.26-11.48-4.22-16.82-7.09c-2.3-1.23-4.67-2.51-7.06-3.64c-13.45-6.36-36.78-13.55-83.96-2.62
				c-6.58,1.52-13.26,3.25-19.71,4.92c-20.73,5.36-42.16,10.9-63.78,10.68c-18.42-0.18-36.74-4.54-54.46-8.77
				c-6.74-1.61-13.72-3.27-20.6-4.68c-30.95-6.33-63.83-8.33-97.73-5.95c-19.59,1.38-44.84,4.53-66.3,16.8
				c-5.73,3.28-11.45,7.27-16.99,11.14C31.2,370.09,16.43,380.4,0,379.26v1C16.74,381.4,31.64,371,46.08,360.91z"/>
			<path class="st2" d="M359.95,120.99c-18.94,5.09-38.52,10.36-57.68,13.93c-30.56,5.69-62.19,7.26-92.77,8.77
				c-25.41,1.26-51.68,2.56-77.26,6.22c-4.94,0.71-10.86,2.14-12.82,6.98c-1.01,2.49-0.72,5.67,0.82,8.94
				c5.63,11.97,20.12,16.97,44.3,15.26c33.57-2.37,67.54-5.66,100.94-9.77c24.8-3.05,48.92-6.54,71.54-15.71
				c8.68-3.52,17.14-7.91,25.31-12.15c5.81-3.02,11.82-6.13,17.85-8.91c33.74-15.53,71.11-21.86,108.08-18.3
				c4.1,0.39,8.01,0.92,11.75,1.56v-1.01c-3.72-0.63-7.59-1.15-11.65-1.54c-37.14-3.58-74.7,2.78-108.6,18.39
				c-6.06,2.79-12.08,5.91-17.9,8.93c-8.15,4.23-16.58,8.61-25.22,12.11c-22.5,9.13-46.56,12.61-71.28,15.65
				c-33.39,4.1-67.33,7.39-100.89,9.76c-23.72,1.68-37.89-3.13-43.32-14.68c-1.42-3.02-1.7-5.91-0.8-8.14
				c1.77-4.37,7.36-5.7,12.04-6.36c25.54-3.65,51.79-4.95,77.17-6.21c30.62-1.52,62.27-3.09,92.9-8.79
				c19.2-3.57,38.8-8.85,57.76-13.95c46.28-12.45,94.04-25.29,139.79-14.38v-1.03C454.07,95.67,406.27,108.52,359.95,120.99z"/>
			<path class="st2" d="M345.54,422.25c-12.8-0.22-20.14,2.84-22.42,9.37l-0.18,0.51l0.53,0.13C381.29,447,440.58,452.69,500,449.24
				v-1c-59.15,3.44-118.18-2.2-175.75-16.8c2.34-5.72,9.31-8.42,21.27-8.19c51.4,0.9,103.2-1.28,154.48-6.46v-1.01
				C448.72,420.97,396.93,423.15,345.54,422.25z"/>
			<path class="st2" d="M442.15,429.09c19.01-3.05,38.47-4.1,57.85-3.19v-1c-19.42-0.91-38.94,0.15-58,3.21
				c-3.72,0.6-8.57,3.5-9.56,6.71c-0.45,1.46-0.07,2.83,1.11,3.95l0.11,0.1l0.15,0.03c21.9,4.02,44.15,4.62,66.2,1.78v-1.01
				c-21.94,2.83-44.08,2.26-65.87-1.73c-0.82-0.83-1.06-1.78-0.74-2.83C434.25,432.33,438.73,429.64,442.15,429.09z"/>
		</g>
		<path class="st2" d="M500,13.48c-16.24-0.03-32.65,0.38-48.7,2.3c-7.25,0.87-14.58,2.07-21.66,3.23
			c-10.39,1.7-21.13,3.46-31.8,4.2c-21.95,1.54-44.25-1.16-65.81-3.77c-7.52-0.91-15.29-1.85-22.94-2.6
			c-27.92-2.73-56.69-3.15-84.52-3.55c-46.94-0.68-95.23-1.39-140.81-13.29h-3.83c46.74,12.85,96.39,13.58,144.63,14.29
			c27.8,0.4,56.55,0.82,84.43,3.55c7.64,0.75,15.41,1.69,22.92,2.59c17.24,2.08,34.94,4.23,52.58,4.23c4.48,0,8.96-0.14,13.42-0.45
			c10.71-0.75,21.48-2.51,31.89-4.21c7.08-1.16,14.39-2.36,21.62-3.22c16-1.92,32.37-2.32,48.58-2.3V13.48z"/>
		<path class="st2" d="M453.48,187.43c-8.84-7.24-21.26,1.36-29.48,7.04c-14.08,9.74-31.26,15.6-48.36,16.48
			c-4.48,0.23-9.06,0.14-13.48,0.05c-7.34-0.15-14.92-0.3-22.28,1.01c-7.23,1.28-14.2,3.97-20.94,6.56
			c-1.59,0.61-3.17,1.22-4.76,1.81c-48.8,18.22-100.97,20.27-154.58,20.86c-19.62,0.22-37.29,0.16-54.82-2.75
			c-6.47-1.08-13-2.56-19.3-4c-8.95-2.04-18.2-4.16-27.5-5.13c-10.07-1.05-20.42-0.79-30.42-0.54c-9.1,0.23-18.39,0.46-27.56-0.3v1
			c9.19,0.76,18.48,0.53,27.59,0.3c9.97-0.25,20.28-0.51,30.29,0.53c9.23,0.97,18.46,3.07,27.38,5.11
			c6.32,1.44,12.86,2.94,19.36,4.02c17.61,2.92,35.33,2.98,55,2.76c53.71-0.6,105.97-2.65,154.92-20.92
			c1.59-0.59,3.18-1.21,4.77-1.82c6.69-2.58,13.62-5.24,20.75-6.51c7.26-1.29,14.79-1.14,22.08-0.99c4.45,0.09,9.04,0.18,13.56-0.05
			c17.54-0.9,34.44-6.66,48.88-16.65c10.13-7.01,20.65-13.33,28.27-7.09c4.79,3.92,4.97,11.38,2.7,16.4
			c-2.65,5.85-8.07,10-12.5,12.96c-19.61,13.12-42.34,18.94-67.88,24.67c-41.58,9.34-83.97,17.68-125.98,24.78
			c-13.87,2.34-26.41,4.26-39.13,4.19c-13.13-0.09-26.33-2.4-39.09-4.64c-3.36-0.59-6.73-1.18-10.09-1.73
			c-36.45-5.97-74.01-7.52-110.33-9.02c-16.67-0.69-33.59-1.39-50.54-2.52v1c16.94,1.13,33.85,1.83,50.5,2.52
			c36.3,1.5,73.83,3.05,110.21,9c3.36,0.55,6.72,1.14,10.08,1.73c12.81,2.24,26.05,4.56,39.26,4.65c0.29,0,0.58,0,0.87,0
			c12.52,0,24.83-1.9,38.43-4.2c42.03-7.1,84.43-15.45,126.03-24.79c25.63-5.76,48.46-11.6,68.21-24.82
			c4.54-3.04,10.1-7.3,12.85-13.38C458.94,199.51,458.71,191.71,453.48,187.43z"/>
		<path class="st2" d="M438.01,365.03c-13.86-10.18-32.83-6.03-49.56-2.36c-1.38,0.3-2.74,0.6-4.09,0.89
			c-27.78,5.94-56.65,6.34-84.56,6.73l-70.32,0.98c-25.05,0.35-50.95,0.71-75.96,5.82c-6.97,1.42-13.98,3.24-20.77,5
			c-11.67,3.03-23.75,6.16-35.92,7.35c-2.68,0.26-5.44,0.44-8.12,0.62c-9.88,0.64-20.1,1.31-28.8,6.18
			c-2.71,1.52-5.23,3.44-7.66,5.29c-2.95,2.25-6,4.57-9.39,6.16c-6.83,3.2-14.83,3.31-21.89,3.41L0,411.37v1l20.98-0.29
			c7.16-0.1,15.28-0.21,22.3-3.5c3.48-1.63,6.58-3.99,9.57-6.27c2.4-1.83,4.89-3.72,7.54-5.21c8.5-4.76,18.6-5.42,28.37-6.05
			c2.68-0.17,5.46-0.35,8.15-0.62c12.25-1.2,24.36-4.34,36.07-7.37c6.77-1.76,13.77-3.57,20.71-4.99
			c24.92-5.09,50.77-5.45,75.77-5.8l70.32-0.98c27.96-0.39,56.87-0.79,84.75-6.75c1.35-0.29,2.72-0.59,4.1-0.89
			c16.53-3.62,35.26-7.72,48.76,2.19c1.94,1.42,5.16,4.36,5,8.05c-0.25,5.61-7.51,7.97-10.62,8.72c-12.75,3.08-26.2,2.79-39.21,2.5
			c-1.55-0.03-3.1-0.07-4.65-0.1c-61.79-1.14-123.26,6.87-182.7,23.81c-8.34,2.38-16.84,4.98-25.06,7.5
			c-37.43,11.46-76.13,23.32-115.12,18.84c-21.62,0.88-43.36,2.2-65.06,3.91v1c21.7-1.72,43.44-3.04,65.02-3.92
			c39.12,4.5,77.93-7.38,115.45-18.88c8.21-2.52,16.71-5.12,25.04-7.49c59.34-16.92,120.72-24.92,182.41-23.78
			c1.55,0.03,3.1,0.06,4.64,0.1c13.07,0.29,26.59,0.59,39.46-2.53c3.33-0.81,11.11-3.36,11.39-9.65
			C443.6,369.78,440.11,366.58,438.01,365.03z"/>
		<path class="st3" d="M306.07,77.32c-1.93-3.25-6.34-3.37-9.97-3.11c-98.46,7.1-198.73,7.47-296.1,7.5v1
			c97.39-0.03,197.68-0.4,296.17-7.5c3.34-0.24,7.39-0.16,9.04,2.62c0.75,1.26,0.82,2.56,0.22,3.86c-1.48,3.2-6.5,5.64-10.47,6.32
			c-20.9,3.56-42.25,5.24-63.47,4.99c-3.4-0.04-6.87-0.13-10.22-0.22c-10.31-0.27-20.97-0.55-31.4,0.6
			c-8.19,0.9-16.36,2.7-24.27,4.44c-3.9,0.86-7.92,1.74-11.9,2.51c-14.02,2.7-28.46,4.14-42.43,5.52l-85.38,8.47
			c-8.55,0.85-17.2,1.7-25.9,2.4v1c8.73-0.7,17.42-1.55,26-2.4l85.38-8.47c13.99-1.39,28.46-2.82,42.52-5.54
			c3.99-0.77,8.02-1.66,11.92-2.52c7.88-1.73,16.03-3.53,24.16-4.42c10.36-1.14,20.99-0.86,31.26-0.6
			c3.36,0.09,6.82,0.18,10.24,0.22c21.27,0.25,42.68-1.44,63.65-5.01c4.22-0.72,9.58-3.38,11.21-6.89
			C307.08,80.52,306.98,78.86,306.07,77.32z"/>
	</g>
</g>
<g id="OBJECTS">
	<g>
		<g>
			<text transform="matrix(1 0 0 1 155.7907 232.2016)" class="st4 st5 st6">4</text>
			<text transform="matrix(1 0 0 1 274.8727 232.2016)" class="st4 st5 st6">4</text>
		</g>
	</g>
	<g>
		<path class="st7" d="M277.23,176.64c-2.47-10.17-9.69-17.93-18.73-21.52c6.17,4.17,10.86,10.57,12.76,18.37
			c4.05,16.66-6.18,33.44-22.83,37.48c-6.49,1.58-12.99,0.98-18.75-1.31c5.72,3.87,12.71,5.83,19.91,5.24l2.01,8.27
			c-1.12,1.06-1.67,2.67-1.28,4.28l4.97,20.46l0.17,0.7l0.82,3.39c0.68,2.82,3.52,4.54,6.34,3.86c2.82-0.68,4.54-3.52,3.86-6.34
			l-0.82-3.39l-0.26-1.07l-4.02-16.56l-0.26-1.07l-0.6-2.47c-0.39-1.61-1.61-2.79-3.1-3.22l-1.92-7.92
			C271.49,209.33,281.19,192.93,277.23,176.64z"/>
		<path class="st8" d="M215.71,191.51c-4.05-16.66,6.18-33.44,22.83-37.48c8.03-1.95,16.09-0.58,22.74,3.23
			c-7.32-6.26-17.44-9.04-27.51-6.6c-16.66,4.05-26.88,20.83-22.83,37.48c2.09,8.62,7.61,15.52,14.75,19.6
			C220.9,203.66,217.31,198.09,215.71,191.51z"/>
		
			<rect x="247.99" y="210.08" transform="matrix(0.9717 -0.236 0.236 0.9717 -45.1993 65.5003)" class="st9" width="6" height="22.92"/>
		<path class="st10" d="M251.6,220.62l-1.58,0.38c-2.38,0.58-3.84,2.98-3.26,5.36l5.96,24.55c0.68,2.82,3.52,4.54,6.34,3.86
			c2.82-0.68,4.54-3.52,3.86-6.34l-5.96-24.55C256.38,221.5,253.98,220.04,251.6,220.62z"/>
		<path class="st4" d="M250.91,220.78l-0.89,0.22c-2.38,0.58-3.84,2.98-3.26,5.36l5.96,24.55c0.68,2.82,3.52,4.54,6.34,3.86
			c0.04-0.01,0.07-0.02,0.1-0.03L250.91,220.78z"/>
		<g>
			<path class="st9" d="M248.55,211.49c-16.91,4.11-34.01-6.31-38.12-23.22c-4.11-16.91,6.31-34.01,23.22-38.12
				c16.91-4.11,34.01,6.31,38.12,23.22C275.88,190.28,265.46,207.38,248.55,211.49z M234.62,154.15
				c-14.7,3.57-23.76,18.44-20.19,33.14s18.44,23.76,33.14,20.19c14.7-3.57,23.76-18.44,20.19-33.14
				C264.19,159.64,249.32,150.58,234.62,154.15z"/>
		</g>
		<path class="st10" d="M251.94,212.78l-0.75-3.08l-5.83,1.42l0.75,3.08c0.98-0.14,1.96-0.33,2.95-0.57
			C250.05,213.39,251.01,213.1,251.94,212.78z"/>
		<g>
			<path class="st9" d="M248.55,211.49c-16.91,4.11-34.01-6.31-38.12-23.22c-4.11-16.91,6.31-34.01,23.22-38.12
				c16.91-4.11,34.01,6.31,38.12,23.22C275.88,190.28,265.46,207.38,248.55,211.49z M234.62,154.15
				c-14.7,3.57-23.76,18.44-20.19,33.14s18.44,23.76,33.14,20.19c14.7-3.57,23.76-18.44,20.19-33.14
				C264.19,159.64,249.32,150.58,234.62,154.15z"/>
		</g>
		<g class="st11">
			<path class="st12" d="M234.62,154.15c-14.7,3.57-23.76,18.44-20.19,33.14s18.44,23.76,33.14,20.19
				c14.7-3.57,23.76-18.44,20.19-33.14C264.19,159.64,249.32,150.58,234.62,154.15z"/>
		</g>
		<g>
			<g>
				<path class="st13" d="M220.36,188.03c-0.88,0.21-1.78-0.33-1.99-1.21c-3.05-12.54,4.68-25.23,17.23-28.28
					c0.88-0.21,1.78,0.33,1.99,1.21c0.21,0.88-0.33,1.78-1.21,1.99c-10.78,2.62-17.42,13.52-14.8,24.29
					C221.78,186.92,221.24,187.81,220.36,188.03z"/>
			</g>
		</g>
		
			<rect x="247.34" y="227.57" transform="matrix(0.9717 -0.236 0.236 0.9717 -46.7071 66.0634)" class="st13" width="10.49" height="1.1"/>
		
			<rect x="251.62" y="245.2" transform="matrix(0.9717 -0.236 0.236 0.9717 -50.745 67.5702)" class="st13" width="10.49" height="1.1"/>
	</g>
</g>
<g id="DESIGNED_BY_FREEPIK">
</g>
</svg>
